<svg width="297" height="42" viewBox="0 0 297 42" fill="none" xmlns="http://www.w3.org/2000/svg"><path d="M129.9 21.16a.3.3 0 0 0-.07-.17h.16l-.1.17Zm-12.46 17.51c.8-6.32 5.11-14.25 12.23-17.21l.1-.06c-1.76 3.32-2.68 6.86-4.65 10.13-1.72 2.86-4.63 5.12-7.68 7.14Zm-23.45-2.25c-.61 1.03-4.13 5.53-3.82 2.89.26-2.19.98-4.32 1.79-6.41 1.66-4.32 4.79-7.95 8.93-11-1.06 1.26-1.52 2.92-2 4.3a57.98 57.98 0 0 1-4.9 10.22Zm-9.26-29.42c-2.56-2.97 2.06-1.37 4.2-.83a46.1 46.1 0 0 1 10.01 4c4.72 2.48 9.27 5.16 12.24 8.94-10.25-1.63-20.38-5.06-26.45-12.11Zm30.89.88a31.97 31.97 0 0 1-3.22-2.54c.23.2-3.15-3.98-2.99-3.93a54.82 54.82 0 0 1 17.78 8.39c3.8 2.75 6.21 6.51 9.85 9.37-5.18-1.8-9.5-4.37-14.14-6.94-2.5-1.39-4.96-2.79-7.28-4.35Zm-55.38 29.94c-2.02 1.9-2.52 1.45-2.52-.87.01-2.46 1.45-4.8 3-6.87 2.6-3.45 6.73-6.11 10.42-8.82h.12c-3.4 5.73-5.74 11.6-11.02 16.56Zm-20.16-11.77c-2.22 3.12-4.17 6.45-8.65 7.72.94-5.77 6.39-10.25 13.15-12.33-1.98 1.13-3.4 3.08-4.5 4.61Zm-36.7-5.86c7.47-2.04 14.6-1.83 22.1-.4l-4.22.04c-.51.01-.72.38-.61.68-5.93.7-12.14 2.28-17.27-.32Zm22.89-13.96c9.83.09 17.09 6.75 23.48 12.21-4.29-1.58-9.03-2.37-13.08-4.5-3.96-2.07-7-5.1-10.4-7.71Zm25.26-2.03c11.76 1.82 21.32 6.67 27.29 14.74-10.54-2.04-22.46-6.77-27.29-14.74Zm93.9 15.86-6.31-.13c.08-.14.07-.32-.1-.47-4.57-4.08-8.13-8.61-13.45-12.15-5.06-3.36-11.19-5.55-17.4-7.29-.42-.12-.95.27-.78.61 2.52 4.8 7.02 8.04 12.27 11.1 4.6 2.67 9.9 6.65 15.67 8.11-7.47-.15-14.94-.27-22.41-.33-1.67-3.67-6.19-6.25-10.06-8.47a54.64 54.64 0 0 0-20.2-7.03c-.46-.06-.87.21-.76.59 1.39 4.61 6.89 8 11.65 10.56a46.95 46.95 0 0 0 10.74 4.29c-8-.04-16-.05-23.99-.03-3.31-9.54-18.4-14.92-29.77-16.46-.45-.06-1.06.24-.84.66 3.85 7.58 14.95 13.77 25.46 15.82-7.62.03-15.24.07-22.85.13a.46.46 0 0 0-.17-.14c-.3-.15-.63-.27-.94-.4-6.86-6.47-15.03-14.66-26.86-14-.68.04-1.1.67-.58 1.08 3.6 2.72 6.81 5.9 10.85 8.24 4.34 2.52 9.47 4.08 14.66 5.25l-19.9.16c-8.8-3.63-19.48-3.55-28.5-.47-.57.2-.65.91-.2 1.22 3.32 2.2 7.45 2.46 11.66 2.38 5.07-.1 11.65-.3 16.45-1.63.2-.05.3-.18.3-.32l13.3.12c-7.04 2.02-11.95 7.5-12.28 13.4-.02.31.4.53.78.45 3.77-.76 6.15-2.75 8.14-5.27 1.17-1.49 2.14-3.07 3.3-4.56 1.4-1.77 3.08-2.69 5.23-3.79a.37.37 0 0 0 .2-.19l21.6.15c-7.83 4.65-15.15 11.2-12.95 19.34.1.33.66.61 1.08.48 3.92-1.25 6.24-4.6 8.27-7.3 2.98-4 4.89-8.18 6.93-12.48v-.03c9 .04 18 .06 27.01.03-7.56 4.18-11.95 13.2-11.31 20.11.02.3.32.63.76.6 3.73-.33 6.08-4.88 7.26-7.13 2.26-4.26 3.47-9.9 6.95-13.6 8.38-.04 16.76-.12 25.14-.26-8.38 2.34-13.15 13.04-12.93 19.2.03.63.92.86 1.5.48 8.1-5.36 11.46-11.84 14.17-19.73 4.74-.09 9.47-.19 14.2-.31.5-.02.5-.57 0-.59Zm21.58.93h.16a.3.3 0 0 0-.06.17l-.1-.17Zm4.88 10.54c-1.98-3.27-2.9-6.81-4.65-10.13l.1.06c7.11 2.96 11.43 10.9 12.23 17.21-3.06-2.02-5.97-4.28-7.69-7.14Zm26.23-5.33c-.49-1.38-.95-3.04-2-4.3 4.14 3.05 7.26 6.68 8.93 11 .8 2.09 1.53 4.23 1.78 6.4.31 2.65-3.2-1.84-3.82-2.88a58.13 58.13 0 0 1-4.89-10.22Zm-12.3-7.1c2.98-3.77 7.53-6.45 12.24-8.92a45.55 45.55 0 0 1 10.01-4.01c2.15-.54 6.77-2.14 4.2.83-6.06 7.05-16.2 10.48-26.45 12.1Zm-11.71-6.87c-4.64 2.57-8.97 5.13-14.14 6.94 3.63-2.86 6.04-6.62 9.85-9.37a54.82 54.82 0 0 1 17.78-8.4c.16-.04-3.23 4.14-3 3.94a31.53 31.53 0 0 1-3.21 2.54 101.63 101.63 0 0 1-7.28 4.35Zm51.64 9.03h.11c3.7 2.7 7.82 5.37 10.42 8.82 1.56 2.06 3 4.4 3 6.87 0 2.32-.5 2.77-2.52.87-5.27-4.97-7.62-10.83-11-16.56Zm26.67.18c6.77 2.08 12.21 6.56 13.16 12.33-4.48-1.27-6.43-4.6-8.66-7.72-1.1-1.53-2.51-3.48-4.5-4.61Zm23.94-.93c.1-.3-.1-.67-.62-.68l-4.22-.03c7.5-1.44 14.63-1.65 22.1.39-5.13 2.6-11.33 1.02-17.26.32Zm-16.02-6.57c-4.06 2.13-8.8 2.92-13.09 4.5 6.4-5.46 13.65-12.12 23.49-12.21-3.41 2.6-6.44 5.64-10.4 7.71Zm-42.15 5c5.97-8.07 15.52-12.92 27.28-14.74-4.83 7.97-16.74 12.7-27.28 14.74Zm-66.61 1.7c4.73.13 9.47.23 14.2.32 2.71 7.9 6.06 14.37 14.18 19.73.57.38 1.47.15 1.5-.48.21-6.16-4.56-16.86-12.93-19.2 8.38.14 16.75.22 25.13.26 3.48 3.7 4.7 9.34 6.95 13.6 1.19 2.25 3.53 6.8 7.27 7.13a.7.7 0 0 0 .76-.6c.63-6.9-3.75-15.93-11.32-20.1 9 .02 18.01 0 27.02-.04v.03c2.04 4.3 3.95 8.49 6.93 12.47 2.02 2.7 4.34 6.06 8.27 7.3.42.14.98-.14 1.07-.47 2.2-8.13-5.11-14.7-12.94-19.34 7.2-.04 14.4-.09 21.59-.15.03.07.1.14.2.2 2.16 1.1 3.84 2.01 5.23 3.78 1.16 1.49 2.13 3.07 3.3 4.56 1.99 2.52 4.37 4.5 8.15 5.27.37.08.8-.14.78-.46-.34-5.9-5.25-11.37-12.28-13.4l13.3-.1c0 .13.1.26.3.31 4.8 1.33 11.37 1.54 16.44 1.63 4.22.08 8.35-.17 11.67-2.38.45-.3.36-1.03-.2-1.22-9.03-3.08-19.7-3.16-28.5.47l-19.9-.16c5.19-1.17 10.31-2.73 14.65-5.25 4.04-2.34 7.26-5.52 10.85-8.24.53-.4.1-1.04-.57-1.07-11.84-.67-20 7.52-26.87 13.98l-.94.4a.44.44 0 0 0-.16.15c-7.62-.06-15.24-.1-22.86-.13 10.52-2.05 21.61-8.24 25.47-15.82.21-.42-.4-.72-.85-.66-11.37 1.54-26.45 6.92-29.77 16.46-8-.02-15.99-.01-23.98.03a46.75 46.75 0 0 0 10.73-4.29c4.77-2.56 10.27-5.95 11.65-10.56.12-.38-.3-.65-.75-.59a54.62 54.62 0 0 0-20.2 7.03c-3.88 2.22-8.4 4.8-10.06 8.47-7.48.06-14.95.18-22.42.33 5.77-1.46 11.08-5.44 15.68-8.12 5.24-3.05 9.75-6.3 12.26-11.09.18-.34-.35-.73-.78-.6-6.2 1.73-12.33 3.92-17.4 7.28-5.31 3.54-8.88 8.07-13.44 12.15-.17.15-.18.33-.1.47l-6.31.13c-.49.02-.49.57 0 .59Z" fill="#8E9892" fill-opacity=".7"/></svg>